# xmcd
#
# Track frame offsets:
#	150
#	17655
#	39539
#	60279
#	78062
#	94901
#	114327
#	130417
#	148009
#	166090
#	180939
#	197687
#	217875
#	236602
#	255189
#	274882
#	295007
#	312016
#	329498
#
# Disc length: 4620 seconds
#
# Revision: 1
# Processed by: cddbd v1.5.2PL0 Copyright (c) Steve Scherf et al.
# Submitted via: audiograbber 1.83.01
#
DISCID=f7120a13
DTITLE=Various Artist - Nu Urban Traxx 056
DYEAR=2004
DGENRE=Hip-Hop
TTITLE0=Mary J Blige Ft Eve - Not Today
TTITLE1=Ludacris - Splash Waterfalls
TTITLE2=T.I. - Rubber Band Man
TTITLE3=Young Gunz - No Better Love
TTITLE4=R Kelly - Touched A Dream
TTITLE5=Chingy - One Call Away
TTITLE6=Twista Ft Kanye West and Jamie Foxx - Slow Jamz
TTITLE7=Mobb Deep Ft 50 Cent - Clap Those Thangs
TTITLE8=Bad Boy's Da Band - Tonight
TTITLE9=Baby Bash - Shorty DooWop
TTITLE10=B2K Ft Fabolous - Bada Boom
TTITLE11=Murphy Lee Ft Jazze Pha and Sleepy Brown - Luv Me Baby
TTITLE12=Joe Ft G-Unit - Ride Wit U
TTITLE13=Juvenile Ft Mannie Fresh - In My Life
TTITLE14=Ruben Studdard - Sorry 2004
TTITLE15=Kanye West - Throught The Wire
TTITLE16=Tweet Ft Missy Elliot - Thugman
TTITLE17=Glenn Lewis Ft Kardinal Offishall - Back For More
TTITLE18=Dwele - Find A Way (G1 Remix)
EXTD=
EXTT0=
EXTT1=
EXTT2=
EXTT3=
EXTT4=
EXTT5=
EXTT6=
EXTT7=
EXTT8=
EXTT9=
EXTT10=
EXTT11=
EXTT12=
EXTT13=
EXTT14=
EXTT15=
EXTT16=
EXTT17=
EXTT18=
PLAYORDER=
